<svg xmlns:dc="http://purl.org/dc/elements/1.1/" xmlns:cc="http://creativecommons.org/ns#" xmlns:rdf="http://www.w3.org/1999/02/22-rdf-syntax-ns#" xmlns:svg="http://www.w3.org/2000/svg" xmlns="http://www.w3.org/2000/svg" xmlns:sodipodi="http://sodipodi.sourceforge.net/DTD/sodipodi-0.dtd" xmlns:inkscape="http://www.inkscape.org/namespaces/inkscape" version="1.1" x="0px" y="0px" viewBox="0 0 100 125"><g transform="translate(0,-952.36218)"><path style="text-indent:0;text-transform:none;direction:ltr;block-progression:tb;baseline-shift:baseline;color:#000000;enable-background:accumulate;" d="M 31.8438,956.64814 C 19.9212,964.05861 12,977.31272 12,992.36689 c 0,22.50061 17.7558,40.88941 40,41.93751 l 0,3.0625 -10,0 c -1.0241,0.011 -1.6271,0.8042 -1.9375,1.4375 l -2,7 c -0.3496,1.1932 0.6942,2.5737 1.9375,2.5625 l 28,0 c 1.2433,0.011 2.2871,-1.3693 1.9375,-2.5625 l -2,-7 c -0.2428,-0.8284 -1.0743,-1.4453 -1.9375,-1.4375 l -10,0 0,-3.0625 c 5.2412,-0.2528 10.2473,-1.473 14.8125,-3.4687 0.9572,-0.4254 1.4411,-1.6834 1.0156,-2.6406 -0.4254,-0.9573 -1.6834,-1.4411 -2.6406,-1.0157 -4.6584,2.0365 -9.777,3.1875 -15.1875,3.1875 -21.0105,0 -38,-16.9895 -38,-38.00001 0,-13.65105 7.1824,-25.60817 17.9688,-32.3125 0.7687,-0.42568 1.1874,-1.39938 0.9676,-2.25012 -0.7572,-1.46695 -1.9208,-1.75008 -3.0926,-1.15613 z M 54,958.36689 c -18.754,0 -34,15.246 -34,34 0,18.75401 15.246,34.00001 34,34.00001 18.7541,0 34,-15.246 34,-34.00001 0,-13.89512 -8.3792,-25.85553 -20.3438,-31.125 -0.013,-0.006 -0.018,-0.0257 -0.031,-0.0312 l -0.031,0 C 63.427,959.38586 58.8339,958.36689 54,958.36689 z m 0,4 c 3.8766,0 7.5702,0.72912 10.9688,2.0625 2.1141,3.63127 1.9738,7.33671 2.0312,9.96875 0.061,2.79148 -1.1506,4.41569 -2.6875,6.90625 -0.8303,1.34551 -2.2713,2.60429 -3.7187,3.875 -1.4476,1.27071 -3.1111,2.52437 -3.5626,4.78125 -0.5239,2.61962 -0.9007,5.52358 -1.6874,7.53125 -0.3936,1.00384 -0.8752,1.74987 -1.375,2.1875 -0.5,0.43761 -1.0025,0.68941 -1.9688,0.68751 -0.7213,-10e-4 -1.112,-0.2019 -1.625,-0.65626 -0.513,-0.45441 -1.0745,-1.22681 -1.5938,-2.25 -1.2649,-2.49284 -1.4533,-4.56638 -1.4687,-6.84375 -0.015,-2.27737 0.2208,-4.77807 -0.3437,-7.65625 -0.6088,-3.10283 -2.4904,-5.06861 -3.8438,-6.59375 -1.3534,-1.52514 -2.125,-2.44575 -2.125,-4 0,-4.14248 1.0048,-6.59695 3.1562,-8.34375 3.0852,-1.06934 6.3906,-1.65625 9.8438,-1.65625 z m 16.3125,4.8125 C 78.5544,972.52123 84,981.79498 84,992.36689 c 0,4.08887 -0.8058,7.98211 -2.2812,11.53131 -2.4702,-1.1258 -5.5477,-1.3466 -8.625,-1.5313 -0.042,-10e-4 -0.083,-10e-4 -0.125,0 -5.0598,0 -8.8386,1.6718 -10.3438,4.7813 -1.4941,3.0867 -0.1925,6.8227 2.9062,9.625 0.024,0.024 0.039,0.039 0.063,0.062 0.888,0.8763 1.7099,1.5317 2.4687,2.0312 -4.1922,2.2239 -8.9781,3.5 -14.0625,3.5 -16.5922,0 -30,-13.4077 -30,-30.00001 0,-10.54097 5.4236,-19.77584 13.625,-25.125 -0.4245,1.56659 -0.625,3.28632 -0.625,5.125 0,3.01715 1.7246,5.07807 3.125,6.65625 1.4004,1.57818 2.5312,2.80624 2.9062,4.71875 0.4334,2.20832 0.2642,4.36994 0.2813,6.90625 0.017,2.53631 0.2996,5.459 1.9063,8.625 0.6406,1.26256 1.4014,2.46456 2.5,3.43756 1.0983,0.9729 2.6092,1.6529 4.2812,1.6562 1.8086,0 3.4483,-0.6574 4.625,-1.6875 1.1767,-1.0301 1.8995,-2.3462 2.4375,-3.71876 1.0759,-2.74509 1.4301,-5.83837 1.9063,-8.21875 0.066,-0.33069 0.8578,-1.34044 2.25,-2.5625 1.3921,-1.22206 3.1753,-2.68539 4.4687,-4.78125 1.4307,-2.31856 3.4017,-5.02977 3.3125,-9.09375 -0.034,-1.54703 0.039,-4.17713 -0.6875,-7.125 z m 2.6563,39.18751 c 2.7357,0.174 5.3896,0.6436 6.9062,1.1875 -2.0218,3.4427 -4.695,6.4597 -7.875,8.8438 l 0,-0.031 c 0,0 -0.022,0.022 -0.6562,-0.25 -0.6339,-0.2718 -1.6677,-0.8595 -3,-2.1875 -0.02,-0.021 -0.041,-0.042 -0.063,-0.062 -2.3251,-2.0744 -2.5974,-3.799 -2.0312,-4.9687 0.5662,-1.1697 2.5419,-2.5313 6.7188,-2.5313 z m -29.4376,35 20.9376,0 0.875,3 -22.6876,0 z" fill="#000000" fill-opacity="1" stroke="none" marker="none" visibility="visible" display="inline" overflow="visible"/></g><!-- <text x="0" y="115" fill="#000000" font-size="5px" font-weight="bold" font-family="'Helvetica Neue', Helvetica, Arial-Unicode, Arial, Sans-serif">Created by iconsphere</text><text x="0" y="120" fill="#000000" font-size="5px" font-weight="bold" font-family="'Helvetica Neue', Helvetica, Arial-Unicode, Arial, Sans-serif">from the Noun Project</text> --></svg>