<svg xmlns="http://www.w3.org/2000/svg" xmlns:xlink="http://www.w3.org/1999/xlink" version="1.1" x="0px" y="0px" viewBox="0 0 100 125" enable-background="new 0 0 100 100" xml:space="preserve"><path d="M21.051,13.122c0-4.292,3.453-7.771,7.712-7.771c4.261,0,7.716,3.479,7.716,7.771c0,4.293-3.455,7.776-7.716,7.776  C24.503,20.898,21.051,17.415,21.051,13.122z"/><polygon points="50.75,94.675 51.964,61.513 30.527,55.848 32.55,40.885 37.808,47.354 58.84,47.354 58.84,42.906 43.471,40.48   32.954,24.707 19.608,24.301 15.564,65.15 41.853,70.409 43.471,94.675 "/><polygon points="12.344,94.802 12.332,91.946 38.19,91.835 37.253,74.443 10.001,69.563 12.522,35.117 15.37,35.326 13.036,67.206   39.981,72.031 41.202,94.678 12.344,94.802 "/><path d="M87.725,60.987V48.021h-5.763v-2.28l-6.324,0l-0.009-17.768c0-0.822-0.668-1.489-1.49-1.489h-0.657  c-0.155,0-0.304,0.031-0.446,0.075l2.001-9.805l-4.485-3.878l-6.132,30.061l5.438-0.796l2.062-10.106l-0.001,13.706l-6.322-0.001  v2.281H49.455v2.855H84.87v7.255H71.524v36.827h11.05v-2.855H74.38V60.987H87.725z"/><!-- <text x="0" y="115" fill="#000000" font-size="5px" font-weight="bold" font-family="'Helvetica Neue', Helvetica, Arial-Unicode, Arial, Sans-serif">Created by Gerald Wildmoser</text><text x="0" y="120" fill="#000000" font-size="5px" font-weight="bold" font-family="'Helvetica Neue', Helvetica, Arial-Unicode, Arial, Sans-serif">from the Noun Project</text> --></svg>